<?xml version="1.0" standalone="no"?>
<!DOCTYPE svg PUBLIC "-//W3C//DTD SVG 20010904//EN"
 "http://www.w3.org/TR/2001/REC-SVG-20010904/DTD/svg10.dtd">
<svg version="1.0" xmlns="http://www.w3.org/2000/svg"
 width="225.000000pt" height="225.000000pt" viewBox="0 0 225.000000 225.000000"
 preserveAspectRatio="xMidYMid meet">
<metadata>
Created by potrace 1.16, written by Peter Selinger 2001-2019
</metadata>
<g transform="translate(0.000000,225.000000) scale(0.100000,-0.100000)"
fill="#000000" stroke="none">
<path d="M479 1477 c-38 -25 -56 -75 -45 -123 4 -20 91 -112 292 -311 301
-297 312 -306 381 -288 31 7 564 530 589 577 24 46 18 86 -20 124 -29 29 -41
34 -81 34 -53 0 -47 5 -382 -325 l-143 -140 -227 227 c-264 262 -287 277 -364
225z"/>
</g>
</svg>
